<?xml version="1.0" standalone="no"?>
<!DOCTYPE svg PUBLIC "-//W3C//DTD SVG 20010904//EN"
 "http://www.w3.org/TR/2001/REC-SVG-20010904/DTD/svg10.dtd">
<svg version="1.0" xmlns="http://www.w3.org/2000/svg"
 width="300.000000pt" height="168.000000pt" viewBox="0 0 300.000000 168.000000"
 preserveAspectRatio="xMidYMid meet">
<metadata>
Created by potrace 1.10, written by Peter Selinger 2001-2011
</metadata>
<g transform="translate(0.000000,168.000000) scale(0.100000,-0.100000)"
fill="#000000" stroke="none">
<path d="M1050 1657 c14 -16 43 -25 83 -26 10 -1 16 -5 13 -10 -7 -10 24 -25
32 -16 13 13 -36 45 -74 48 -23 2 -47 8 -55 12 -11 6 -10 4 1 -8z"/>
<path d="M882 1620 c-19 -11 -41 -20 -50 -19 -10 1 -30 -1 -46 -6 -20 -5 -31
-4 -37 6 -5 8 -9 10 -9 5 0 -5 -7 -3 -15 4 -20 16 -60 -24 -69 -68 -3 -19 -17
-47 -31 -64 -34 -40 -41 -74 -21 -97 21 -23 17 -69 -6 -77 -16 -5 -22 -16 -19
-36 0 -5 -4 -8 -10 -8 -5 0 -7 -4 -4 -10 10 -17 25 -11 25 10 0 16 5 19 30 14
25 -5 30 -3 35 18 11 43 2 90 -20 102 -11 6 -22 12 -25 14 -2 1 14 19 36 40
48 43 61 74 40 91 -12 10 -13 16 -3 26 7 7 15 11 20 8 4 -2 7 1 7 6 0 6 7 11
15 11 9 0 15 -9 15 -25 0 -30 19 -32 56 -8 20 13 27 14 33 4 10 -16 91 24 91
45 0 8 5 14 10 14 6 0 10 -4 10 -10 0 -20 41 -33 68 -21 14 7 28 8 31 3 11
-17 46 -29 79 -27 21 2 32 -2 32 -11 0 -19 50 -50 73 -46 15 3 18 0 13 -13 -3
-9 -1 -26 6 -38 14 -27 49 -59 57 -52 3 4 1 9 -5 13 -6 4 -24 33 -39 65 -15
32 -33 61 -41 64 -8 3 -11 9 -8 14 3 5 -1 9 -9 9 -8 0 -24 9 -37 20 -21 19
-46 25 -79 21 -7 -2 -10 2 -6 8 4 7 -10 11 -42 11 -26 0 -64 3 -83 6 -25 3
-44 -1 -68 -16z"/>
<path d="M1100 1469 c0 -14 50 -16 61 -3 10 12 5 14 -25 12 -20 -2 -36 -6 -36
-9z"/>
<path d="M933 1400 c3 -11 1 -23 -4 -26 -5 -3 -7 -9 -4 -14 4 -6 13 -5 23 1
22 14 24 49 3 41 -9 -3 -12 -1 -7 6 4 7 2 12 -5 12 -6 0 -9 -8 -6 -20z"/>
<path d="M1155 1410 c-3 -5 -13 -10 -21 -10 -8 0 -24 -10 -36 -22 -19 -19 -19
-21 -2 -14 43 18 57 16 24 -3 -41 -23 -33 -28 10 -6 19 10 27 20 24 30 -5 11
0 12 25 5 34 -9 71 -3 71 13 0 6 -3 7 -6 4 -4 -3 -16 -2 -27 4 -14 8 -18 8
-13 0 9 -14 0 -14 -24 -1 -13 7 -21 7 -25 0z"/>
<path d="M737 1394 c-3 -3 -3 -12 0 -20 4 -10 -3 -14 -21 -14 -30 0 -33 -11
-8 -27 25 -15 38 -5 44 35 4 30 -1 40 -15 26z"/>
<path d="M1360 1391 c0 -6 -7 -11 -15 -11 -8 0 -15 -4 -15 -10 0 -5 7 -10 15
-10 8 0 15 -4 15 -10 0 -18 -20 -11 -45 16 -20 22 -25 24 -25 9 0 -9 13 -29
29 -45 21 -19 27 -30 19 -38 -15 -15 -1 -82 17 -82 19 0 19 -14 0 -30 -8 -7
-15 -18 -15 -24 0 -20 -20 -34 -41 -29 -10 3 -19 10 -19 15 0 5 5 6 10 3 6 -3
10 1 10 10 0 9 4 14 8 11 5 -3 9 1 9 8 0 8 -6 12 -14 9 -7 -3 -13 -9 -13 -14
0 -5 -5 -9 -11 -9 -5 0 -7 5 -4 10 3 6 2 10 -4 10 -5 0 -13 -4 -16 -10 -3 -5
-1 -10 6 -10 9 0 9 -3 0 -14 -14 -16 -8 -21 37 -31 19 -4 32 -3 32 3 0 6 10 8
23 5 16 -3 18 -2 9 5 -17 11 -15 22 6 45 15 16 15 20 -1 46 -19 33 -22 45 -7
36 14 -9 12 9 -2 24 -11 10 -8 11 13 7 22 -3 26 -1 22 15 -3 10 -9 19 -13 19
-5 0 -7 16 -6 35 2 20 -1 38 -5 41 -5 3 -9 0 -9 -5z"/>
<path d="M1670 1391 c0 -4 15 -15 33 -26 17 -10 38 -25 45 -32 7 -7 20 -13 28
-13 30 0 12 20 -46 48 -33 17 -60 27 -60 23z"/>
<path d="M1246 1371 c-4 -6 -12 -9 -17 -6 -5 4 -9 1 -9 -4 0 -6 -15 -11 -34
-11 -18 0 -47 -7 -62 -16 -29 -16 -29 -16 23 -10 28 4 54 3 57 -2 2 -4 23 -9
46 -10 28 -2 40 1 35 8 -4 6 -18 9 -32 8 -15 -2 -28 3 -31 11 -3 9 0 12 10 9
21 -8 39 5 29 21 -6 9 -11 10 -15 2z"/>
<path d="M2850 1360 c-18 -10 -50 -22 -69 -26 -7 -1 -23 -12 -35 -23 -13 -12
-26 -18 -29 -14 -4 3 -7 2 -7 -4 0 -6 -13 -16 -30 -22 -16 -5 -30 -15 -30 -20
0 -6 -6 -11 -12 -11 -17 -1 -67 -54 -107 -113 -18 -26 -42 -58 -54 -71 -12
-13 -30 -35 -40 -50 -10 -15 -23 -24 -30 -20 -7 4 -4 -1 5 -11 14 -15 20 -16
32 -5 9 7 16 18 16 25 0 7 21 34 48 61 26 27 54 60 62 73 8 13 27 39 42 56 15
18 25 35 21 39 -3 3 3 6 13 6 11 0 30 9 42 20 12 11 26 20 32 20 5 0 10 4 10
10 0 5 11 12 25 16 14 3 25 10 25 14 0 4 12 10 28 13 29 6 70 32 62 40 -3 3
-12 1 -20 -3z"/>
<path d="M807 1326 c-16 -12 -16 -14 -2 -20 9 -3 13 -2 10 3 -3 5 -1 12 5 16
5 3 10 -1 10 -10 0 -9 5 -13 10 -10 14 9 12 35 -2 35 -7 0 -21 -7 -31 -14z"/>
<path d="M954 1300 c-14 -22 -24 -46 -20 -55 3 -8 0 -15 -6 -15 -6 0 -17 -8
-24 -17 -10 -14 -13 -15 -14 -4 0 10 -8 7 -25 -9 -14 -13 -25 -28 -25 -33 0
-13 -83 -97 -97 -97 -7 0 -13 -4 -13 -10 0 -20 -71 -120 -82 -114 -7 4 -7 9 1
14 7 4 9 15 5 25 -5 12 -4 16 3 12 7 -5 9 1 6 14 -5 19 -8 18 -22 -12 -9 -19
-29 -64 -44 -101 -16 -36 -37 -74 -48 -84 -27 -24 -24 -41 9 -46 44 -6 76 6
87 32 6 14 38 82 72 152 58 118 65 128 90 128 16 0 35 4 43 10 9 6 19 5 29 -3
8 -7 24 -12 36 -12 13 -1 29 -6 37 -13 13 -10 15 0 16 76 0 51 7 105 16 131
29 81 13 97 -30 31z m-10 -137 c-3 -27 -10 -50 -16 -52 -6 -2 -5 -7 3 -12 10
-7 6 -9 -12 -6 -15 1 -34 9 -43 16 -9 7 -16 10 -16 7 0 -4 -4 -5 -9 -2 -14 9
71 93 97 96 1 0 0 -21 -4 -47z m-324 -321 c0 -4 -5 -13 -11 -19 -9 -9 -7 -11
7 -9 10 2 13 1 7 -1 -7 -3 -13 -9 -13 -14 0 -6 -7 -4 -15 5 -17 17 -10 46 11
46 8 0 14 -4 14 -8z"/>
<path d="M760 1291 c0 -5 -8 -7 -18 -4 -10 2 -24 -3 -31 -11 -11 -13 -11 -16
1 -16 8 0 23 -9 32 -19 25 -27 13 -77 -22 -96 -15 -8 -20 -14 -12 -14 23 -1
38 12 49 42 16 42 14 56 -15 82 -30 28 -21 34 14 9 12 -8 22 -10 22 -5 0 6 -4
11 -10 11 -5 0 -7 7 -4 15 4 8 3 15 0 15 -3 0 -6 -4 -6 -9z"/>
<path d="M1256 1275 c-2 -7 -29 -10 -67 -9 -35 2 -55 0 -44 -3 11 -3 26 -10
33 -16 10 -8 16 -7 22 2 10 17 24 -4 17 -24 -4 -8 3 -15 16 -18 36 -7 81 -1
83 12 1 6 0 7 -2 2 -7 -14 -43 -1 -54 20 -8 15 -5 21 17 33 25 13 26 15 6 13
-12 -1 -24 -6 -27 -12z"/>
<path d="M584 1229 c-3 -6 -1 -16 5 -22 13 -13 15 -31 2 -23 -12 8 -22 -20
-15 -39 4 -8 11 -15 17 -15 6 0 8 -3 4 -6 -8 -8 34 -54 50 -54 7 0 13 5 13 10
0 6 -9 10 -21 10 -16 0 -19 4 -13 18 24 56 -13 167 -42 121z"/>
<path d="M178 1211 c-31 -14 -123 -17 -160 -5 -31 9 -19 -3 20 -22 38 -18 83
-25 92 -13 3 4 22 10 44 13 21 4 42 8 46 11 4 3 25 7 46 11 22 3 44 10 49 15
15 15 -97 7 -137 -10z"/>
<path d="M671 1211 c-18 -12 -6 -30 19 -28 12 1 20 8 20 19 0 19 -16 23 -39 9z"/>
<path d="M1140 1170 c0 -8 8 -10 22 -7 14 4 26 0 34 -11 12 -16 13 -16 14 3 0
26 17 7 22 -25 2 -18 10 -26 28 -27 l25 -3 -23 12 c-15 7 -20 17 -17 29 7 22
-6 30 -61 36 -30 3 -44 1 -44 -7z"/>
<path d="M2084 1164 c3 -9 6 -19 6 -24 0 -4 8 -10 18 -14 9 -3 32 -15 50 -26
17 -11 32 -15 32 -10 0 13 -39 48 -61 55 -9 3 -20 12 -23 20 -3 8 -10 15 -17
15 -6 0 -8 -7 -5 -16z"/>
<path d="M1586 1100 c3 -24 11 -52 18 -62 13 -22 38 -24 30 -3 -4 8 -10 12
-15 9 -5 -3 -8 5 -8 18 1 13 -6 37 -15 53 l-17 30 7 -45z"/>
<path d="M2762 1122 c-12 -12 -20 -27 -17 -31 2 -5 -5 -11 -16 -14 -12 -3 -18
-10 -14 -16 3 -6 -1 -11 -9 -11 -9 0 -16 -4 -16 -9 0 -5 -18 -27 -40 -49 -34
-35 -36 -40 -17 -38 33 3 77 36 77 57 0 11 7 19 15 19 10 0 15 7 13 17 -2 10
2 18 8 18 7 0 25 13 40 29 16 16 24 26 17 23 -7 -4 -13 0 -15 10 -3 16 -6 15
-26 -5z"/>
<path d="M1043 1116 c-11 -13 -3 -39 13 -36 5 1 10 -3 12 -9 2 -6 -5 -11 -15
-12 -11 0 -13 -3 -5 -6 7 -3 19 -2 28 1 12 4 13 10 4 26 -9 16 -8 20 5 20 23
0 13 24 -11 27 -10 2 -24 -3 -31 -11z"/>
<path d="M1214 1072 c3 -5 0 -12 -6 -15 -10 -3 -10 -7 1 -20 17 -22 40 -22 57
1 12 15 13 15 8 -5 -5 -19 -3 -21 18 -16 18 4 20 3 8 -6 -12 -9 -11 -11 7 -11
12 0 33 5 47 12 21 9 24 16 19 37 -3 14 -6 27 -7 28 -1 1 -13 -1 -28 -4 -16
-3 -25 -10 -21 -16 4 -6 -4 -7 -23 -2 -48 12 -59 11 -58 -7 1 -10 -3 -15 -8
-12 -5 3 -7 12 -4 20 3 7 0 16 -6 20 -6 4 -8 3 -4 -4z"/>
<path d="M1426 1024 c-3 -8 -1 -26 4 -40 10 -24 9 -25 -12 -10 -26 19 -51 21
-46 4 2 -6 15 -13 28 -15 13 -2 28 -9 32 -16 6 -9 8 -9 8 2 0 11 3 11 18 0 15
-12 16 -12 4 2 -7 9 -9 25 -5 34 4 12 3 16 -4 12 -6 -4 -13 0 -17 8 -5 13 -1
13 29 1 32 -14 34 -13 32 5 -1 11 -7 17 -14 15 -7 -3 -13 -2 -13 2 0 14 -38
11 -44 -4z"/>
<path d="M975 1017 c-4 -11 2 -41 16 -79 13 -34 22 -74 21 -89 -1 -17 5 -33
16 -41 10 -7 28 -28 42 -47 22 -32 24 -33 37 -15 14 20 12 40 -5 37 -5 -1 -18
8 -28 20 -13 14 -14 18 -4 12 9 -6 4 1 -11 15 -15 14 -30 39 -33 55 l-6 30 15
-25 c16 -25 16 -25 9 10 -4 19 -13 44 -20 55 -8 11 -14 28 -14 38 0 10 -4 16
-9 12 -5 -3 -11 3 -14 12 -4 17 -4 17 -12 0z"/>
<path d="M1115 1021 c-11 -5 -23 -7 -26 -5 -3 2 -6 -2 -6 -9 0 -7 -4 -21 -8
-32 -5 -16 -5 -17 4 -5 6 8 14 15 18 16 20 2 62 28 57 35 -6 11 -12 10 -39 0z"/>
<path d="M1340 971 c0 -24 -25 -34 -50 -21 -15 8 -21 6 -30 -10 -6 -12 -9 -26
-6 -33 2 -7 5 -4 5 6 1 21 9 22 30 3 23 -20 93 -7 97 17 2 18 2 18 -17 1 -24
-22 -37 -11 -14 13 11 11 14 18 6 21 -6 2 -9 8 -5 13 3 5 0 9 -5 9 -6 0 -11
-9 -11 -19z"/>
<path d="M1515 980 c-3 -5 -3 -14 0 -20 3 -5 -2 -22 -12 -37 -10 -15 -13 -24
-7 -20 6 3 16 -4 22 -17 12 -26 7 -36 -17 -36 -14 0 -14 2 -1 10 8 5 11 10 5
10 -15 0 -72 -49 -57 -50 21 0 13 -19 -15 -34 -36 -20 -13 -20 33 -1 29 12 35
19 31 36 -5 20 -5 20 14 3 10 -9 22 -14 26 -11 3 4 2 7 -4 7 -20 0 -9 30 24
62 18 17 33 27 33 22 0 -6 -11 -21 -25 -34 -18 -17 -22 -27 -15 -40 5 -10 6
-21 2 -25 -4 -4 -2 -6 3 -3 64 28 85 40 85 48 0 15 -9 12 -42 -11 -16 -12 -31
-19 -34 -16 -6 6 52 51 67 53 5 1 14 2 20 3 8 1 7 6 -1 16 -12 14 -17 12 -45
-15 -44 -43 -56 -38 -14 7 22 24 28 34 15 29 -13 -5 -17 -2 -13 9 11 28 -15
27 -39 -1 -35 -43 -29 -15 7 31 28 36 27 36 -10 -5 -23 -25 -41 -40 -41 -34 0
6 3 14 8 18 6 7 12 56 6 56 -2 0 -6 -4 -9 -10z m75 -44 c0 -2 -13 -18 -28 -36
-24 -27 -30 -30 -35 -16 -4 9 -3 15 2 12 4 -3 19 6 31 19 23 24 30 29 30 21z"/>
<path d="M1146 958 c-21 -10 -36 -21 -34 -24 9 -8 66 17 72 32 3 8 4 14 3 13
-1 -1 -19 -10 -41 -21z"/>
<path d="M1414 898 c-5 -8 -1 -9 12 -4 16 6 17 5 4 -6 -8 -7 -21 -20 -29 -28
-11 -13 -12 -11 -6 15 l7 30 -24 -26 c-13 -14 -29 -24 -36 -21 -7 2 -12 -1
-12 -6 0 -6 -15 -20 -32 -32 -26 -17 -28 -20 -9 -15 18 6 22 4 16 -6 -4 -8 7
1 24 19 26 28 36 32 59 27 32 -7 68 24 59 50 -7 18 -23 20 -33 3z"/>
<path d="M2560 885 c0 -19 11 -24 34 -15 16 5 17 8 5 15 -22 15 -39 14 -39 0z"/>
<path d="M1150 870 c-11 -11 -20 -29 -20 -40 0 -22 8 -25 30 -10 13 8 13 11 1
19 -11 7 -9 13 8 30 11 11 17 21 11 21 -5 0 -19 -9 -30 -20z"/>
<path d="M1590 799 c-28 -16 -30 -19 -10 -15 14 3 35 6 48 6 13 0 22 6 22 15
0 20 -18 18 -60 -6z"/>
<path d="M1590 770 c-30 -6 -31 -8 -9 -9 15 0 42 -4 60 -7 32 -5 33 -5 15 10
-11 9 -22 15 -25 15 -3 -1 -22 -5 -41 -9z"/>
<path d="M1386 755 c-3 -9 -9 -14 -14 -11 -4 2 -14 0 -22 -5 -10 -6 0 -7 30
-4 25 3 49 11 55 17 7 8 4 9 -9 4 -11 -4 -22 -2 -26 4 -5 8 -9 6 -14 -5z"/>
<path d="M1115 740 c-8 -13 3 -30 21 -30 18 0 18 14 0 29 -10 8 -16 9 -21 1z"/>
<path d="M1595 736 c39 -17 85 -28 85 -21 0 10 -68 35 -92 35 -20 -1 -20 -2 7
-14z"/>
<path d="M1190 727 c0 -5 6 -7 12 -5 7 3 19 -1 26 -9 8 -7 18 -11 23 -7 14 9
-16 33 -40 31 -11 -1 -21 -5 -21 -10z"/>
<path d="M1497 723 c-12 -12 -7 -22 8 -17 9 4 15 0 15 -9 0 -8 -6 -17 -12 -19
-10 -4 -10 -10 -1 -31 8 -18 18 -25 28 -21 8 3 15 1 15 -5 0 -7 -7 -14 -15
-17 -29 -11 -13 -58 20 -59 19 0 16 -32 -4 -38 -25 -6 -17 -47 11 -54 25 -7
23 -21 -4 -25 -27 -4 -39 -48 -14 -48 9 0 16 7 16 16 0 9 8 22 17 29 15 11 15
15 3 30 -12 14 -11 21 4 46 18 30 18 31 -4 54 -12 13 -22 36 -22 50 0 14 -4
28 -9 31 -5 3 -9 14 -9 25 0 19 4 20 43 14 47 -8 47 -7 -6 29 -37 26 -67 33
-80 19z"/>
<path d="M1310 704 c0 -8 -4 -12 -10 -9 -5 3 -10 -2 -10 -13 0 -30 28 -22 32
10 3 15 1 28 -4 28 -4 0 -8 -7 -8 -16z"/>
<path d="M1436 711 c-11 -4 -20 -17 -21 -28 -2 -26 14 -20 38 12 19 26 15 29
-17 16z"/>
<path d="M1071 693 c3 -20 -2 -24 -15 -14 -11 10 -21 9 -44 -3 -34 -18 -45
-39 -29 -55 17 -17 31 -13 17 4 -7 9 -10 18 -6 22 3 3 6 1 6 -6 0 -9 11 -11
38 -6 33 5 46 1 93 -29 29 -20 61 -36 71 -36 9 0 19 -4 22 -9 4 -5 18 -6 33
-2 22 6 33 2 50 -15 13 -13 23 -29 23 -37 0 -7 5 -18 12 -25 6 -6 11 -31 12
-55 1 -33 4 -41 13 -32 7 7 9 28 6 51 -3 21 -6 49 -7 62 -1 12 -7 27 -13 33
-7 7 -9 18 -6 27 4 10 2 13 -5 8 -6 -4 -27 0 -46 8 -21 9 -38 11 -41 5 -10
-15 -32 -10 -62 15 -15 13 -37 25 -48 27 -11 2 -27 18 -36 34 -13 27 -41 46
-38 28z"/>
<path d="M1200 667 c0 -9 36 -42 48 -44 18 -4 15 7 -10 28 -21 17 -38 24 -38
16z"/>
<path d="M970 592 c0 -6 -6 -9 -14 -6 -15 6 -46 -21 -46 -40 0 -7 -10 -23 -22
-36 -17 -18 -18 -22 -5 -17 11 4 17 1 17 -9 0 -8 5 -12 11 -9 6 4 8 14 5 22
-3 8 -1 11 4 8 6 -3 13 2 17 12 4 10 16 30 27 45 11 15 17 31 13 35 -4 3 -7 1
-7 -5z"/>
<path d="M1460 555 l-25 -14 23 -1 c13 0 30 7 38 15 20 20 -1 20 -36 0z"/>
<path d="M1039 490 c-49 -16 -115 -71 -130 -107 -9 -23 -29 -32 -29 -12 0 5
-5 7 -10 4 -6 -3 -17 1 -26 9 -14 15 -14 16 1 16 11 0 15 5 11 16 -4 9 -2 13
5 8 6 -4 15 0 20 7 14 22 10 49 -6 49 -9 0 -15 -9 -15 -22 0 -18 -2 -20 -10
-8 -7 12 -10 11 -16 -5 -12 -29 -34 -50 -76 -70 -40 -18 -53 -41 -17 -30 14 5
19 3 15 -3 -4 -7 5 -10 23 -10 17 1 28 5 25 10 -6 9 32 5 42 -5 4 -4 18 -7 31
-7 23 0 63 -31 63 -50 0 -15 36 -12 50 5 11 13 8 15 -18 15 -39 0 -64 27 -38
42 11 6 16 19 14 36 -2 22 2 28 20 30 14 2 27 14 33 29 6 17 14 23 26 19 8 -4
26 0 39 9 16 10 25 11 30 4 4 -6 19 -8 36 -5 20 4 30 1 34 -8 3 -8 16 -17 30
-20 15 -4 24 -14 24 -25 0 -10 6 -21 14 -24 11 -5 13 0 6 23 -4 16 -6 31 -3
34 3 2 -14 14 -37 26 -23 12 -44 19 -48 16 -3 -3 -10 -2 -16 3 -21 16 -52 17
-97 1z"/>
<path d="M105 411 c-9 -15 28 -31 46 -20 12 8 12 10 -1 19 -19 12 -37 13 -45
1z"/>
<path d="M1106 373 c-10 -10 -16 -12 -12 -5 4 6 2 12 -3 12 -6 0 -11 -6 -11
-14 0 -8 -8 -13 -17 -12 -17 1 -33 -38 -25 -62 3 -10 8 -10 19 -1 11 10 17 8
29 -9 17 -24 51 -28 74 -9 17 14 26 57 12 57 -9 0 -25 -37 -23 -52 1 -9 -29 1
-46 15 -17 12 -7 27 18 27 24 0 25 16 2 29 -15 9 -16 10 -2 11 9 0 16 7 16 15
0 20 -9 19 -31 -2z"/>
<path d="M1571 369 c-1 -9 -12 -22 -25 -29 -29 -15 -41 -39 -26 -54 17 -17 11
-36 -10 -36 -24 0 -37 -27 -21 -43 20 -20 12 -37 -18 -37 -33 0 -57 -24 -53
-52 3 -16 -2 -19 -29 -16 -17 2 -34 -2 -36 -8 -2 -6 11 -11 32 -12 31 -1 39 3
56 33 12 19 27 35 35 35 17 0 46 43 42 61 -2 8 7 15 19 17 19 3 21 7 13 23 -6
10 -8 19 -5 19 3 0 2 8 -4 18 -7 13 -4 23 16 44 14 14 23 32 20 40 -4 9 -6 9
-6 -3z"/>
<path d="M1328 328 c-21 -23 -38 -43 -38 -45 0 -11 -29 -31 -35 -25 -5 4 -5 2
-2 -4 4 -6 -8 -23 -25 -38 -17 -14 -29 -28 -27 -31 10 -9 113 60 125 83 6 13
17 29 23 35 6 6 11 17 11 25 0 8 8 21 18 28 14 11 14 13 2 13 -8 0 -32 -19
-52 -41z"/>
<path d="M2697 262 c7 -18 28 -42 37 -42 3 0 1 11 -6 24 -13 29 -41 45 -31 18z"/>
<path d="M1190 251 c0 -7 -5 -9 -12 -5 -7 5 -8 3 -3 -5 6 -10 -5 -12 -46 -10
-47 4 -54 2 -53 -13 1 -10 -2 -18 -7 -18 -5 0 -9 -5 -9 -11 0 -8 4 -8 15 1 8
6 24 9 37 5 19 -5 18 -3 -5 10 -31 18 -31 33 0 17 33 -18 111 13 89 35 -3 3
-6 1 -6 -6z"/>
<path d="M940 228 c12 -11 19 -27 15 -36 -3 -12 3 -21 18 -27 12 -6 23 -19 25
-30 6 -40 12 -49 24 -37 14 14 48 -2 48 -23 0 -17 25 -20 35 -5 8 13 35 1 35
-15 0 -22 22 -29 32 -11 12 21 47 21 64 -1 9 -13 16 -15 24 -7 8 8 2 16 -24
28 -26 12 -34 21 -29 34 5 13 1 12 -18 -5 -20 -18 -28 -20 -37 -11 -7 7 -12
18 -12 25 0 11 -6 11 -29 -1 -28 -15 -29 -15 -35 17 -5 25 -9 29 -16 17 -5 -8
-10 -11 -10 -6 0 6 -5 5 -12 -2 -18 -18 -25 -15 -24 11 1 12 10 26 21 31 17 8
13 11 -25 15 l-45 6 25 18 c13 9 19 17 12 17 -7 0 -11 3 -9 8 3 4 -13 8 -35 9
l-40 1 22 -20z"/>
</g>
</svg>
